<?xml version="1.0" encoding="UTF-8" standalone="no"?>
<!DOCTYPE svg PUBLIC "-//W3C//DTD SVG 1.1//EN"
 "http://www.w3.org/Graphics/SVG/1.1/DTD/svg11.dtd">
<!-- Generated by graphviz version 13.0.1 (20250615.1724)
 -->
<!-- Title: tforder Pages: 1 -->
<svg width="769pt" height="44pt"
 viewBox="0.00 0.00 769.00 44.00" xmlns="http://www.w3.org/2000/svg" xmlns:xlink="http://www.w3.org/1999/xlink">
<g id="graph0" class="graph" transform="scale(1 1) rotate(0) translate(4 40)">
<title>tforder</title>
<polygon fill="#fafafa" stroke="none" points="-4,4 -4,-40 764.5,-40 764.5,4 -4,4"/>
<!-- example/dev/eu&#45;west&#45;1/ew1a/vpc -->
<g id="node1" class="node">
<title>example/dev/eu&#45;west&#45;1/ew1a/vpc</title>
<polygon fill="#e3f2fd" stroke="#1976d2" points="507.5,-36 290.5,-36 290.5,0 507.5,0 507.5,-36"/>
<text xml:space="preserve" text-anchor="middle" x="399" y="-12.2" font-family="Helvetica,sans-Serif" font-size="14.00">example/dev/eu&#45;west&#45;1/ew1a/vpc</text>
</g>
<!-- example/dev/eu&#45;west&#45;1/ew1a/eks -->
<g id="node2" class="node">
<title>example/dev/eu&#45;west&#45;1/ew1a/eks</title>
<polygon fill="#e3f2fd" stroke="#1976d2" points="760.5,-36 543.5,-36 543.5,0 760.5,0 760.5,-36"/>
<text xml:space="preserve" text-anchor="middle" x="652" y="-12.2" font-family="Helvetica,sans-Serif" font-size="14.00">example/dev/eu&#45;west&#45;1/ew1a/eks</text>
</g>
<!-- example/dev/eu&#45;west&#45;1/ew1a/vpc&#45;&gt;example/dev/eu&#45;west&#45;1/ew1a/eks -->
<g id="edge1" class="edge">
<title>example/dev/eu&#45;west&#45;1/ew1a/vpc&#45;&gt;example/dev/eu&#45;west&#45;1/ew1a/eks</title>
<path fill="none" stroke="#1976d2" stroke-width="2" d="M507.9,-18C515.94,-18 524.08,-18 532.18,-18"/>
<polygon fill="#1976d2" stroke="#1976d2" stroke-width="2" points="532.16,-20.8 540.16,-18 532.16,-15.2 532.16,-20.8"/>
</g>
<!-- example/dev/global/shared/apex_zones -->
<g id="node3" class="node">
<title>example/dev/global/shared/apex_zones</title>
<polygon fill="#e3f2fd" stroke="#1976d2" points="254.5,-36 0,-36 0,0 254.5,0 254.5,-36"/>
<text xml:space="preserve" text-anchor="middle" x="127.25" y="-12.2" font-family="Helvetica,sans-Serif" font-size="14.00">example/dev/global/shared/apex_zones</text>
</g>
<!-- example/dev/global/shared/apex_zones&#45;&gt;example/dev/eu&#45;west&#45;1/ew1a/vpc -->
<g id="edge2" class="edge">
<title>example/dev/global/shared/apex_zones&#45;&gt;example/dev/eu&#45;west&#45;1/ew1a/vpc</title>
<path fill="none" stroke="#1976d2" stroke-width="2" d="M254.83,-18C262.93,-18 271.06,-18 279.11,-18"/>
<polygon fill="#1976d2" stroke="#1976d2" stroke-width="2" points="279.01,-20.8 287.01,-18 279.01,-15.2 279.01,-20.8"/>
</g>
</g>
</svg>
