<?xml version="1.0" encoding="UTF-8" standalone="no"?>
<!DOCTYPE svg PUBLIC "-//W3C//DTD SVG 1.1//EN"
 "http://www.w3.org/Graphics/SVG/1.1/DTD/svg11.dtd">
<!-- Generated by graphviz version 13.0.1 (20250615.1724)
 -->
<!-- Title: tforder Pages: 1 -->
<svg width="602pt" height="44pt"
 viewBox="0.00 0.00 602.00 44.00" xmlns="http://www.w3.org/2000/svg" xmlns:xlink="http://www.w3.org/1999/xlink">
<g id="graph0" class="graph" transform="scale(1 1) rotate(0) translate(4 40)">
<title>tforder</title>
<polygon fill="#fafafa" stroke="none" points="-4,4 -4,-40 598,-40 598,4 -4,4"/>
<!-- dev/eu&#45;west&#45;1/ew1a/vpc -->
<g id="node1" class="node">
<title>dev/eu&#45;west&#45;1/ew1a/vpc</title>
<polygon fill="#e3f2fd" stroke="#1976d2" points="396.5,-36 235,-36 235,0 396.5,0 396.5,-36"/>
<text xml:space="preserve" text-anchor="middle" x="315.75" y="-12.2" font-family="Helvetica,sans-Serif" font-size="14.00">dev/eu&#45;west&#45;1/ew1a/vpc</text>
</g>
<!-- dev/eu&#45;west&#45;1/ew1a/eks -->
<g id="node2" class="node">
<title>dev/eu&#45;west&#45;1/ew1a/eks</title>
<polygon fill="#e3f2fd" stroke="#1976d2" points="594,-36 432.5,-36 432.5,0 594,0 594,-36"/>
<text xml:space="preserve" text-anchor="middle" x="513.25" y="-12.2" font-family="Helvetica,sans-Serif" font-size="14.00">dev/eu&#45;west&#45;1/ew1a/eks</text>
</g>
<!-- dev/eu&#45;west&#45;1/ew1a/vpc&#45;&gt;dev/eu&#45;west&#45;1/ew1a/eks -->
<g id="edge1" class="edge">
<title>dev/eu&#45;west&#45;1/ew1a/vpc&#45;&gt;dev/eu&#45;west&#45;1/ew1a/eks</title>
<path fill="none" stroke="#1976d2" stroke-width="2" d="M396.83,-18C404.97,-18 413.28,-18 421.52,-18"/>
<polygon fill="#1976d2" stroke="#1976d2" stroke-width="2" points="421.27,-20.8 429.27,-18 421.27,-15.2 421.27,-20.8"/>
</g>
<!-- dev/global/shared/apex_zones -->
<g id="node3" class="node">
<title>dev/global/shared/apex_zones</title>
<polygon fill="#e3f2fd" stroke="#1976d2" points="199,-36 0,-36 0,0 199,0 199,-36"/>
<text xml:space="preserve" text-anchor="middle" x="99.5" y="-12.2" font-family="Helvetica,sans-Serif" font-size="14.00">dev/global/shared/apex_zones</text>
</g>
<!-- dev/global/shared/apex_zones&#45;&gt;dev/eu&#45;west&#45;1/ew1a/vpc -->
<g id="edge2" class="edge">
<title>dev/global/shared/apex_zones&#45;&gt;dev/eu&#45;west&#45;1/ew1a/vpc</title>
<path fill="none" stroke="#1976d2" stroke-width="2" d="M199.47,-18C207.61,-18 215.82,-18 223.9,-18"/>
<polygon fill="#1976d2" stroke="#1976d2" stroke-width="2" points="223.79,-20.8 231.79,-18 223.79,-15.2 223.79,-20.8"/>
</g>
</g>
</svg>
