<?xml version="1.0" encoding="UTF-8" standalone="no"?>
<!DOCTYPE svg PUBLIC "-//W3C//DTD SVG 1.1//EN"
 "http://www.w3.org/Graphics/SVG/1.1/DTD/svg11.dtd">
<!-- Generated by graphviz version 13.0.1 (20250615.1724)
 -->
<!-- Title: tforder Pages: 1 -->
<svg width="526pt" height="98pt"
 viewBox="0.00 0.00 526.00 98.00" xmlns="http://www.w3.org/2000/svg" xmlns:xlink="http://www.w3.org/1999/xlink">
<g id="graph0" class="graph" transform="scale(1 1) rotate(0) translate(4 94)">
<title>tforder</title>
<polygon fill="#fafafa" stroke="none" points="-4,4 -4,-94 521.5,-94 521.5,4 -4,4"/>
<!-- eu&#45;west&#45;1/ew1a/vpc -->
<g id="node1" class="node">
<title>eu&#45;west&#45;1/ew1a/vpc</title>
<polygon fill="#e3f2fd" stroke="#1976d2" points="345.5,-90 209.5,-90 209.5,-54 345.5,-54 345.5,-90"/>
<text xml:space="preserve" text-anchor="middle" x="277.5" y="-66.2" font-family="Helvetica,sans-Serif" font-size="14.00">eu&#45;west&#45;1/ew1a/vpc</text>
</g>
<!-- eu&#45;west&#45;1/ew1a/eks -->
<g id="node2" class="node">
<title>eu&#45;west&#45;1/ew1a/eks</title>
<polygon fill="#e3f2fd" stroke="#1976d2" points="517.5,-90 381.5,-90 381.5,-54 517.5,-54 517.5,-90"/>
<text xml:space="preserve" text-anchor="middle" x="449.5" y="-66.2" font-family="Helvetica,sans-Serif" font-size="14.00">eu&#45;west&#45;1/ew1a/eks</text>
</g>
<!-- eu&#45;west&#45;1/ew1a/vpc&#45;&gt;eu&#45;west&#45;1/ew1a/eks -->
<g id="edge1" class="edge">
<title>eu&#45;west&#45;1/ew1a/vpc&#45;&gt;eu&#45;west&#45;1/ew1a/eks</title>
<path fill="none" stroke="#1976d2" stroke-width="2" d="M345.69,-72C353.82,-72 362.18,-72 370.45,-72"/>
<polygon fill="#1976d2" stroke="#1976d2" stroke-width="2" points="370.22,-74.8 378.22,-72 370.22,-69.2 370.22,-74.8"/>
</g>
<!-- global/shared/apex_zones -->
<g id="node3" class="node">
<title>global/shared/apex_zones</title>
<polygon fill="#e3f2fd" stroke="#1976d2" points="173.5,-63 0,-63 0,-27 173.5,-27 173.5,-63"/>
<text xml:space="preserve" text-anchor="middle" x="86.75" y="-39.2" font-family="Helvetica,sans-Serif" font-size="14.00">global/shared/apex_zones</text>
</g>
<!-- global/shared/apex_zones&#45;&gt;eu&#45;west&#45;1/ew1a/vpc -->
<g id="edge2" class="edge">
<title>global/shared/apex_zones&#45;&gt;eu&#45;west&#45;1/ew1a/vpc</title>
<path fill="none" stroke="#1976d2" stroke-width="2" d="M173.84,-57.31C181.99,-58.48 190.23,-59.66 198.31,-60.81"/>
<polygon fill="#1976d2" stroke="#1976d2" stroke-width="2" points="197.88,-63.58 206.2,-61.94 198.68,-58.04 197.88,-63.58"/>
</g>
<!-- eu&#45;west&#45;1/ew1b/vpc -->
<g id="node4" class="node">
<title>eu&#45;west&#45;1/ew1b/vpc</title>
<polygon fill="#e3f2fd" stroke="#1976d2" points="345.5,-36 209.5,-36 209.5,0 345.5,0 345.5,-36"/>
<text xml:space="preserve" text-anchor="middle" x="277.5" y="-12.2" font-family="Helvetica,sans-Serif" font-size="14.00">eu&#45;west&#45;1/ew1b/vpc</text>
</g>
<!-- global/shared/apex_zones&#45;&gt;eu&#45;west&#45;1/ew1b/vpc -->
<g id="edge4" class="edge">
<title>global/shared/apex_zones&#45;&gt;eu&#45;west&#45;1/ew1b/vpc</title>
<path fill="none" stroke="#1976d2" stroke-width="2" d="M173.84,-32.69C181.99,-31.52 190.23,-30.34 198.31,-29.19"/>
<polygon fill="#1976d2" stroke="#1976d2" stroke-width="2" points="198.68,-31.96 206.2,-28.06 197.88,-26.42 198.68,-31.96"/>
</g>
<!-- eu&#45;west&#45;1/ew1b/eks -->
<g id="node5" class="node">
<title>eu&#45;west&#45;1/ew1b/eks</title>
<polygon fill="#e3f2fd" stroke="#1976d2" points="517.5,-36 381.5,-36 381.5,0 517.5,0 517.5,-36"/>
<text xml:space="preserve" text-anchor="middle" x="449.5" y="-12.2" font-family="Helvetica,sans-Serif" font-size="14.00">eu&#45;west&#45;1/ew1b/eks</text>
</g>
<!-- eu&#45;west&#45;1/ew1b/vpc&#45;&gt;eu&#45;west&#45;1/ew1b/eks -->
<g id="edge3" class="edge">
<title>eu&#45;west&#45;1/ew1b/vpc&#45;&gt;eu&#45;west&#45;1/ew1b/eks</title>
<path fill="none" stroke="#1976d2" stroke-width="2" d="M345.69,-18C353.82,-18 362.18,-18 370.45,-18"/>
<polygon fill="#1976d2" stroke="#1976d2" stroke-width="2" points="370.22,-20.8 378.22,-18 370.22,-15.2 370.22,-20.8"/>
</g>
</g>
</svg>
